<svg width="381" height="280" viewBox="0 0 381 280" fill="none" xmlns="http://www.w3.org/2000/svg">
<path d="M378.692 237.638C373.125 194.832 346.663 132.115 307.474 81.9385C268.273 31.7453 216.469 -5.74097 160.252 1.57053C132.007 5.24408 107.299 8.7147 86.2945 13.1939C65.2868 17.6736 48.0173 23.1555 34.6345 30.8352C21.2633 38.5083 11.7796 48.3707 6.31938 61.6253C0.854408 74.8913 -0.600358 91.6047 2.18361 113.01C7.75429 155.842 24.5997 197.024 54.1053 225.659C83.5952 254.279 125.774 270.407 182.123 263.078C227.369 257.194 269.786 265.594 303.605 272.291C312.081 273.969 320.017 275.541 327.322 276.754C336.444 278.268 344.57 279.223 351.544 279.141C358.521 279.058 364.297 277.938 368.751 275.344C377.589 270.195 381.478 259.057 378.692 237.638Z" stroke="#ABABAB"/>
</svg>
